<mxfile host="65bd71144e">
    <diagram id="Wvmbv2pmuSEReieuj3N9" name="Page-1">
        <mxGraphModel dx="768" dy="499" grid="1" gridSize="10" guides="1" tooltips="1" connect="1" arrows="1" fold="1" page="1" pageScale="1" pageWidth="850" pageHeight="1100" math="0" shadow="0">
            <root>
                <mxCell id="0"/>
                <mxCell id="1" parent="0"/>
                <mxCell id="2" value="Vertical Container" style="swimlane;whiteSpace=wrap;html=1;" parent="1" vertex="1">
                    <mxGeometry x="130" y="20" width="520" height="220" as="geometry"/>
                </mxCell>
                <mxCell id="4" value="&lt;font style=&quot;font-size: 12px;&quot;&gt;TITLE&lt;/font&gt;" style="text;strokeColor=none;fillColor=none;html=1;fontSize=24;fontStyle=1;verticalAlign=middle;align=left;" parent="2" vertex="1">
                    <mxGeometry x="10" y="30" width="410" height="30" as="geometry"/>
                </mxCell>
                <mxCell id="5" value="Photo" style="whiteSpace=wrap;html=1;aspect=fixed;fontSize=12;" parent="2" vertex="1">
                    <mxGeometry x="20" y="90" width="110" height="110" as="geometry"/>
                </mxCell>
                <mxCell id="10" value="" style="endArrow=none;html=1;" edge="1" parent="2">
                    <mxGeometry width="50" height="50" relative="1" as="geometry">
                        <mxPoint x="10" y="75" as="sourcePoint"/>
                        <mxPoint x="510" y="75" as="targetPoint"/>
                    </mxGeometry>
                </mxCell>
                <mxCell id="11" value="User" style="ellipse;whiteSpace=wrap;html=1;aspect=fixed;" vertex="1" parent="2">
                    <mxGeometry x="470" y="30" width="40" height="40" as="geometry"/>
                </mxCell>
                <mxCell id="7" value="Description" style="rounded=0;whiteSpace=wrap;html=1;fontSize=12;" parent="2" vertex="1">
                    <mxGeometry x="145" y="90" width="240" height="110" as="geometry"/>
                </mxCell>
                <mxCell id="12" value="Tags" style="whiteSpace=wrap;html=1;aspect=fixed;fontSize=12;" vertex="1" parent="2">
                    <mxGeometry x="400" y="90" width="110" height="110" as="geometry"/>
                </mxCell>
            </root>
        </mxGraphModel>
    </diagram>
</mxfile>